<?xml version="1.0" encoding="utf-8"?>
<!-- Generator: Adobe Illustrator 24.2.3, SVG Export Plug-In . SVG Version: 6.00 Build 0)  -->
<svg version="1.1" xmlns="http://www.w3.org/2000/svg" xmlns:xlink="http://www.w3.org/1999/xlink" x="0px" y="0px"
	 viewBox="0 0 500 374.48" style="enable-background:new 0 0 500 374.48;" xml:space="preserve">
<style type="text/css">
	.st0{fill:#528F9C;}
	.st1{fill:#C2384B;}
	.st2{enable-background:new    ;}
	.st3{fill:#CC607C;}
	.st4{fill:#C45470;}
	.st5{fill:#CA4E5E;}
	.st6{fill:#5F3522;}
	.st7{fill:none;}
	.st8{fill:#E8B86F;}
	.st9{fill:#EBC07E;}
	.st10{fill:#5E3E1B;}
	.st11{fill:none;stroke:#528F9C;stroke-miterlimit:10;}
	.st12{fill:#B0E6ED;}
	.st13{fill:#FFFFFF;}
	.st14{fill:#FDF8EC;}
	.st15{fill:#FBF3D8;}
	.st16{fill:#222221;}
	.st17{fill:#B9DAF3;}
	.st18{fill:#3E3E3D;}
	.st19{fill:url(#SVGID_1_);}
	.st20{fill:#F2F7F5;}
	.st21{fill:#E7BE38;}
	.st22{fill:#E6B82D;}
	.st23{fill:#ECCC59;}
	.st24{fill:#FAF9FA;}
	.st25{fill:#FDFBFB;}
	.st26{fill:#F5F5F5;}
	.st27{fill:#DEDEDF;}
	.st28{fill:#EBEBEB;}
	.st29{fill:#FDF9EF;}
	.st30{fill:#C4E1F8;}
	.st31{fill:#BADCF7;}
	.st32{fill:#E8BEBA;}
	.st33{fill:#777776;}
	.st34{fill:#C63A30;}
	.st35{fill:none;stroke:#FFFFFF;stroke-miterlimit:10;}
</style>
<g id="OBJECTS">
	<g>
		<g>
			<g>
				<g>
					<path class="st0" d="M430.24,324.08c18.97-7.55,18.89-19.78-0.21-27.33c-19.1-7.55-49.97-7.55-68.94,0l0,0
						c-18.97,7.55-18.87,19.79,0.23,27.33l0,0C380.41,331.63,411.27,331.63,430.24,324.08L430.24,324.08z"/>
					<g>
						<g>
							<g>
								<path class="st1" d="M423.36,314.36c-1.37,0-2.74-0.11-4.1-0.34l0.54-3.26c2.21,0.37,4.45,0.39,6.66,0.07
									c1.64-0.24,2.68-0.68,3.17-1.37c0.58-0.81,0.55-2.14,0.47-3.55l-0.22-3.59c-0.06-0.96-0.12-1.95-0.47-2.7
									c-0.43-0.9-1.4-1.61-2.53-1.84c-1.1-0.23-2.39-0.04-3.64,0.52l-1.36-3.01c1.91-0.86,3.86-1.12,5.66-0.75
									c2.16,0.44,3.98,1.81,4.85,3.66c0.63,1.32,0.71,2.76,0.78,3.91l0.22,3.59c0.09,1.54,0.24,3.86-1.09,5.69
									c-1.39,1.93-3.73,2.47-5.37,2.7C425.75,314.28,424.56,314.36,423.36,314.36z"/>
							</g>
							<g>
								<g class="st2">
									<g>
										<path class="st3" d="M419.23,315.13c3.07,1.75,0.48,3.84-5.78,4.68c-6.26,0.84-13.83,0.11-16.9-1.63
											c-3.07-1.74-0.48-3.84,5.78-4.68C408.59,312.66,416.16,313.39,419.23,315.13z"/>
									</g>
									<g>
										<path class="st1" d="M423.33,287.91c4.16,2.36,0.65,5.2-7.83,6.34s-18.73,0.15-22.89-2.21c-4.16-2.36-0.65-5.2,7.83-6.34
											C408.93,284.56,419.18,285.55,423.33,287.91z"/>
										<path class="st4" d="M408.09,293.94c-6.4,0-12.33-1.01-15.09-2.58c-0.94-0.53-1.42-1.08-1.34-1.51
											c0.15-0.77,2.2-2.47,8.88-3.37c2.3-0.31,4.76-0.47,7.31-0.47c6.4,0,12.33,1.01,15.09,2.58c0.94,0.53,1.42,1.08,1.34,1.51
											c-0.15,0.77-2.2,2.47-8.89,3.37C413.1,293.79,410.64,293.94,408.09,293.94z"/>
										<g>
											<path class="st5" d="M407.86,289.98c5.58,0,10.8,0.77,13.87,2.01c1.78-0.71,2.47-1.44,2.56-1.88
												c0.08-0.43-0.41-0.98-1.34-1.51c-2.76-1.57-8.68-2.58-15.09-2.58c-2.55,0-5.01,0.16-7.31,0.47
												c-6.69,0.9-8.74,2.6-8.88,3.37c-0.08,0.43,0.41,0.98,1.34,1.51c0.35,0.2,0.76,0.39,1.22,0.58
												c1.38-0.55,3.41-1.1,6.33-1.49C402.85,290.14,405.31,289.98,407.86,289.98z"/>
											<path class="st6" d="M415.4,293.48c2.92-0.39,4.95-0.94,6.33-1.49c-3.08-1.24-8.29-2.01-13.87-2.01
												c-2.55,0-5.01,0.16-7.31,0.47c-2.92,0.39-4.95,0.94-6.33,1.49c3.08,1.24,8.29,2.01,13.87,2.01
												C410.64,293.94,413.1,293.79,415.4,293.48z"/>
										</g>
									</g>
									<g>
										<path class="st5" d="M395.26,316.73c-0.42-2.78-2.64-13.53-4.39-26.65c0.09,0.66,0.63,1.33,1.74,1.96
											c4.16,2.36,14.41,3.35,22.89,2.21c5.91-0.79,9.4-2.41,9.57-4.12l-4.56,26.64c-0.13,1.26-2.71,2.46-7.07,3.04
											c-6.26,0.84-13.83,0.11-16.9-1.63C395.72,317.72,395.31,317.22,395.26,316.73z"/>
									</g>
									<g>
										<path class="st1" d="M418.92,293.65c-1.44,1.2-1.58,4.51-1.8,6.12c-0.28,2.07-0.47,4.17-1.03,6.18
											c-0.91,3.32-2.94,5.79-6.21,6.99c-5.36,1.97-10.69,0.96-15.54-1.37c0.45,2.45,0.78,4.24,0.92,5.16
											c0.05,0.49,0.46,0.98,1.29,1.45c3.07,1.75,10.64,2.48,16.9,1.63c4.36-0.59,6.94-1.78,7.07-3.04l4.56-26.64
											C424.94,291.48,422.74,292.77,418.92,293.65z"/>
									</g>
								</g>
							</g>
						</g>
						<g>
							<g>
								<g>
									<path class="st7" d="M368.6,305.81c0,0,0.01,0,0.01,0.01c0-0.01,0-0.02-0.01-0.03C368.6,305.76,368.6,305.77,368.6,305.81z
										"/>
									<path class="st7" d="M369.95,304.81c-0.53,0.33-0.89,0.72-1.08,1.13c2.44,1.16,6.08,1.01,8.41-0.34
										c-0.21-0.38-0.59-0.73-1.13-1.02C374.41,303.65,371.63,303.76,369.95,304.81z"/>
									<path class="st8" d="M368.6,305.78c0,0.01,0,0.02,0.01,0.03c0.01,0,0.01,0.01,0.02,0.01c0.08,0.04,0.17,0.08,0.25,0.12
										c0.19-0.41,0.54-0.79,1.08-1.13c1.68-1.06,4.46-1.16,6.21-0.23c0.54,0.29,0.92,0.64,1.13,1.02
										c0.06-0.04,0.13-0.07,0.2-0.11c2.4-1.51,2.34-3.81-0.16-5.14c-2.5-1.33-6.46-1.18-8.86,0.33c-2.39,1.5-2.33,3.79,0.13,5.12
										C368.6,305.77,368.6,305.76,368.6,305.78z"/>
									<path class="st8" d="M363.04,318.07c1.06,0.47,1.98,0.75,2.15,0.8c0.69,0.2,1.23,0.36,2.29,0.57
										c1.27,0.25,2.38,0.35,2.39,0.35c1.38,0.11,1.79,0.14,2.45,0.13c0.37-0.01,0.86,0,1.23-0.02c0.37-0.01,0.86-0.05,1.23-0.07
										c0.37-0.02,0.86-0.09,1.23-0.13c0.24-0.03,2.44-0.28,4.78-1.07c0.59-0.2,1.32-0.46,2.25-0.89c0.6-0.28,1.37-0.72,1.94-1.05
										l0,0c0.84-0.52,1.38-0.97,1.56-1.12c0.41-0.34,0.91-0.84,1.29-1.23c0.26-0.26,0.56-0.66,0.77-0.96
										c0.23-0.33,0.51-0.79,0.71-1.15c0.42-0.76,0.78-1.79,0.91-2.42c0.11-0.5,0.2-0.9,0.26-1.58c0.06-0.63,0.05-1.05,0.04-1.59
										c0.03,0.65-0.06,1.3-0.24,1.95c0.19-0.65,0.27-1.3,0.24-1.95l-0.03-0.85c0.1,2.59-1.51,5.26-4.87,7.36
										c-6.66,4.18-17.68,4.59-24.59,0.91c-3.44-1.83-5.21-4.32-5.31-6.88l0.03,0.85c0.08,2,0.62,3.36,0.8,3.81
										c0.21,0.54,0.5,1.1,0.86,1.67c0.37,0.6,0.78,1.06,1.05,1.37c0.62,0.72,1.74,1.63,2.66,2.17
										C361.78,317.45,362.17,317.68,363.04,318.07z"/>
									<path class="st9" d="M384.14,309.04c5.95-3.73,5.77-9.43-0.4-12.71c-6.17-3.28-15.99-2.92-21.93,0.82
										c-5.94,3.73-5.77,9.42,0.4,12.71C368.37,313.13,378.2,312.77,384.14,309.04z M368.46,300.69c2.4-1.51,6.37-1.66,8.86-0.33
										c2.49,1.33,2.56,3.63,0.16,5.14c-0.06,0.04-0.13,0.07-0.2,0.11c-2.34,1.35-5.98,1.5-8.41,0.34
										c-0.08-0.04-0.17-0.08-0.25-0.12c-0.01,0-0.01-0.01-0.02-0.01c0,0-0.01,0-0.01-0.01
										C366.13,304.47,366.07,302.19,368.46,300.69z"/>
									<path class="st9" d="M361.04,314.07c6.91,3.68,17.92,3.27,24.59-0.91c3.36-2.11,4.97-4.77,4.87-7.36
										c-0.06-1.12-0.26-4.54-3.23-7.39c-0.8-0.77-1.41-1.17-2.12-1.63c-0.57-0.37-1.14-0.64-1.93-1.01
										c-1.21-0.57-3.28-1.18-4.45-1.38c-1.33-0.23-1.73-0.3-2.39-0.35c-0.37-0.03-0.85-0.08-1.22-0.09
										c-1.64-0.05-1.64-0.05-2.47-0.02c-1.46,0.05-3.7,0.26-6.05,0.91c-2.44,0.68-4,1.51-4.42,1.75
										c-0.54,0.31-1.27,0.72-1.76,1.1c-0.23,0.17-0.54,0.39-0.76,0.58c-0.4,0.36-0.94,0.84-1.3,1.25
										c-0.66,0.74-1.49,1.82-2.08,3.51c-0.29,0.84-0.42,1.55-0.51,2.19c-0.11,0.75-0.09,1.49-0.08,1.97
										C355.83,309.75,357.61,312.25,361.04,314.07z M361.81,297.15c5.95-3.73,15.77-4.1,21.93-0.82
										c6.16,3.28,6.34,8.97,0.4,12.71c-5.94,3.73-15.77,4.1-21.93,0.81C356.04,306.57,355.87,300.88,361.81,297.15z"/>
								</g>
							</g>
							<path class="st10" d="M391.46,305.74c-0.07-1.22-0.28-4.94-3.54-8.05c-0.87-0.83-1.55-1.27-2.27-1.74
								c-0.63-0.41-1.26-0.71-2.05-1.08c-1.33-0.63-3.48-1.25-4.7-1.46c-1.32-0.23-1.76-0.31-2.49-0.36l-0.37-0.03
								c-0.3-0.03-0.63-0.05-0.9-0.06c-0.93-0.03-1.34-0.04-1.67-0.04c-0.27,0-0.48,0.01-0.86,0.02c-1.52,0.06-3.84,0.27-6.28,0.95
								c-2.55,0.71-4.2,1.59-4.65,1.84c-0.56,0.32-1.32,0.75-1.87,1.17l-0.21,0.15c-0.21,0.16-0.44,0.32-0.61,0.48
								c-0.5,0.44-1.01,0.91-1.39,1.33c-0.72,0.81-1.63,1.99-2.27,3.84c-0.32,0.92-0.46,1.68-0.55,2.37
								c-0.12,0.84-0.1,1.65-0.09,2.16l0.03,0.85c0,0.07,0.01,0.15,0.01,0.22c0.06,1.09,0.59,2.12,1.41,2.82
								c0.82,0.7,1.79-0.04,2.7,0.01c1.26,0.07,1.11,1.38,1.29,2.31c0.12,0.65,0.54,1.74,1.38,1.56c0.19-0.04,0.35-0.13,0.51-0.24
								c0.63-0.45,1.4-0.63,2.16-0.47c10.1,2.14,15.82-0.2,18.03-1.48c0.64-0.38,1.44-0.29,2.02,0.18c0,0,0,0,0.01,0.01
								c0.6,0.47,1.5,0.21,1.96-0.32c0.24-0.27,0.41-0.6,0.6-0.91c0.7-1.12,1.67-2.03,2.66-2.89c0.67-0.57,2.06-1.54,2.01-2.54
								C391.48,306.35,391.46,305.76,391.46,305.74z M368.99,301.54c1.1-0.69,2.66-1.08,4.27-1.08c1.36,0,2.63,0.28,3.59,0.79
								c0.86,0.46,1.37,1.06,1.39,1.64c0.02,0.59-0.45,1.24-1.28,1.76l-0.17,0.1c-0.07,0.04-0.15,0.07-0.22,0.1
								c-1.06,0.56-2.45,0.88-3.89,0.88c-1.16,0-2.26-0.22-3.16-0.6c-0.07-0.03-0.15-0.05-0.22-0.09l-0.19-0.09l-0.05-0.03
								c-0.85-0.46-1.34-1.05-1.36-1.63C367.69,302.7,368.16,302.06,368.99,301.54z"/>
						</g>
					</g>
				</g>
				<g>
					<g>
						<path class="st0" d="M280.28,108.53L62.79,234.92c-3.56,2.07-5.33,4.77-5.33,7.48c0-0.01,0-0.02,0-0.03l-0.04,13.23
							c-0.01,2.73,1.8,5.47,5.42,7.56l116.04,67c7.18,4.15,18.8,4.15,25.93,0L422.3,203.78c0.04-0.02,0.07-0.04,0.11-0.06
							c4.01-2.37,4.02-8.19,0.12-10.73C397.26,176.53,286.6,104.86,280.28,108.53z"/>
						<g>
							<polygon class="st0" points="336.41,198.79 336.41,197.3 332.14,196.72 327.87,196.13 323.6,198.61 327.88,199.19 
								332.15,199.78 332.15,201.27 405.55,244.4 409.81,241.93 							"/>
						</g>
						<path class="st11" d="M206.93,284.36l110.21,63.24c13.67,7.84,30.57,7.41,43.82-1.11v0"/>
					</g>
					<g>
						<g>
							<g>
								<path class="st12" d="M407.33,80.7c-0.08-0.05-0.16-0.08-0.24-0.13c-1.08-6.98-5.95-14.59-11.79-17.96
									c-1.67-0.97-3.27-1.49-4.72-1.62c-0.85-2.87-2.11-5.84-3.79-8.75c-3.41-5.9-7.88-10.45-12.36-13.03
									c-4.48-2.59-8.96-3.21-12.39-1.26l-6.14,3.57c-1.5,0.86-2.67,2.14-3.52,3.75c-1.63-0.23-3.1,0.01-4.31,0.71l-6.14,3.57
									c0.01,0,0.01-0.01,0.02-0.01c-2.18,1.25-3.53,3.93-3.54,7.75c-0.02,7.3,4.87,16.11,11.1,20.3l51.6,29.79
									c2.97,1.71,5.63,1.76,7.48,0.47c-0.11,0.08-0.21,0.16-0.33,0.23l6.14-3.57c1.81-1.05,2.93-3.28,2.94-6.46
									C417.37,91.68,412.88,83.9,407.33,80.7z"/>
								<path class="st13" d="M368.29,42.77c4.48,2.59,8.95,7.13,12.36,13.03c1.68,2.91,2.94,5.88,3.79,8.75
									c1.45,0.13,3.05,0.66,4.72,1.62c5.85,3.38,10.71,10.98,11.79,17.96c0.08,0.05,0.16,0.08,0.24,0.13
									c5.55,3.21,10.04,10.98,10.02,17.36c-0.02,6.39-4.54,8.96-10.09,5.76l-51.6-29.79c-6.23-4.2-11.12-13-11.1-20.3
									c0.02-7.66,5.44-10.75,12.1-6.9c0.11,0.06,0.22,0.15,0.33,0.21c0.44-4.13,2.12-7.42,5.05-9.08
									C359.33,39.56,363.81,40.19,368.29,42.77z"/>
							</g>
							<g>
								<path class="st12" d="M79.66,161.79c0.05-0.03,0.1-0.05,0.15-0.08c0.67-4.35,3.7-9.08,7.34-11.18
									c1.04-0.6,2.04-0.93,2.94-1.01c0.53-1.79,1.31-3.63,2.36-5.44c2.12-3.67,4.9-6.5,7.69-8.11c2.79-1.61,5.58-2,7.71-0.78
									l3.82,2.22c0.94,0.53,1.66,1.33,2.19,2.33c1.01-0.14,1.93,0.01,2.68,0.44l3.82,2.22c0,0-0.01,0-0.01-0.01
									c1.36,0.78,2.2,2.45,2.2,4.82c0.01,4.54-3.03,10.02-6.91,12.64L83.52,178.4c-1.85,1.07-3.5,1.1-4.65,0.29
									c0.07,0.05,0.13,0.1,0.2,0.14l-3.82-2.22c-1.12-0.65-1.82-2.04-1.83-4.02C73.41,168.63,76.2,163.79,79.66,161.79z"/>
								<path class="st13" d="M103.96,138.19c-2.79,1.61-5.57,4.44-7.69,8.11c-1.05,1.81-1.83,3.66-2.36,5.44
									c-0.9,0.08-1.9,0.41-2.94,1.01c-3.64,2.1-6.67,6.83-7.34,11.18c-0.05,0.03-0.1,0.05-0.15,0.08
									c-3.46,1.99-6.25,6.84-6.24,10.81c0.01,3.97,2.82,5.58,6.28,3.58l32.12-18.54c3.88-2.61,6.92-8.09,6.91-12.64
									c-0.01-4.77-3.39-6.69-7.53-4.29c-0.07,0.04-0.14,0.09-0.21,0.13c-0.27-2.57-1.32-4.61-3.14-5.65
									C109.53,136.19,106.74,136.58,103.96,138.19z"/>
							</g>
							<g>
								<path class="st12" d="M161.65,75.93c0.08-0.05,0.15-0.07,0.22-0.12c1.02-6.54,5.57-13.67,11.05-16.83
									c1.57-0.91,3.07-1.4,4.42-1.52c0.8-2.69,1.97-5.47,3.55-8.2c3.19-5.53,7.39-9.79,11.58-12.21c4.2-2.42,8.4-3.01,11.61-1.18
									l5.75,3.34c1.41,0.8,2.5,2.01,3.3,3.51c1.53-0.22,2.9,0.01,4.04,0.67l5.75,3.34c-0.01,0-0.01-0.01-0.02-0.01
									c2.04,1.17,3.31,3.69,3.32,7.26c0.02,6.84-4.57,15.09-10.4,19.03l-48.36,27.92c-2.78,1.61-5.28,1.65-7.01,0.44
									c0.1,0.07,0.2,0.15,0.31,0.21l-5.75-3.34c-1.69-0.98-2.74-3.08-2.75-6.05C152.24,86.23,156.45,78.94,161.65,75.93z"/>
								<path class="st13" d="M198.24,40.39c-4.2,2.42-8.39,6.69-11.58,12.21c-1.57,2.73-2.75,5.51-3.55,8.2
									c-1.36,0.12-2.85,0.62-4.42,1.52c-5.48,3.16-10.04,10.29-11.05,16.83c-0.08,0.05-0.15,0.07-0.22,0.12
									c-5.2,3-9.41,10.29-9.39,16.27c0.02,5.98,4.25,8.4,9.46,5.39l48.36-27.92c5.84-3.93,10.42-12.19,10.4-19.03
									c-0.02-7.18-5.1-10.07-11.34-6.46c-0.1,0.06-0.21,0.14-0.31,0.2c-0.41-3.87-1.98-6.95-4.73-8.51
									C206.64,37.38,202.44,37.97,198.24,40.39z"/>
							</g>
						</g>
						<g>
							<g>
								<g>
									<g class="st2">
										<g>
											<path class="st14" d="M340.95,146.52c-0.01,3.28-0.02,6.55-0.03,9.83C340.94,153.07,340.94,149.8,340.95,146.52
												L340.95,146.52z"/>
										</g>
										<g>
											<path class="st14" d="M340.92,159.46c-1.02,0.59-1.53,1.37-1.53,2.14l0.04-12.94c0-0.78,0.51-1.55,1.53-2.14
												C340.94,150.83,340.93,155.15,340.92,159.46c0.01-4.32,0.04-8.63,0.04-12.94c2.05-1.19,5.39-1.19,7.45,0l-0.04,12.94
												C346.3,158.27,342.97,158.27,340.92,159.46z"/>
										</g>
										<g>
											<path class="st14" d="M349.93,161.64c0-0.79-0.52-1.57-1.56-2.18l0.04-12.94c1.04,0.6,1.56,1.39,1.56,2.18
												C349.95,152.58,349.94,157.75,349.93,161.64z"/>
										</g>
										<g>
											<path class="st15" d="M349.97,148.7l-0.04,12.94c0,0.78-0.51,1.55-1.53,2.14c-2.05,1.19-5.39,1.19-7.46,0
												c-1.04-0.6-1.56-1.39-1.56-2.17l0.04-12.94c0,0.79,0.52,1.57,1.56,2.17c2.07,1.19,5.4,1.19,7.46,0
												C349.45,150.25,349.96,149.47,349.97,148.7z"/>
										</g>
										<g>
											<path class="st16" d="M348.41,146.52c2.07,1.19,2.08,3.12,0.02,4.32c-2.05,1.19-5.39,1.19-7.46,0
												c-2.07-1.19-2.08-3.12-0.02-4.32C343.01,145.33,346.34,145.33,348.41,146.52z"/>
										</g>
										<g>
											<path class="st16" d="M419.73,179.92l-0.04,12.94c-0.01,2.64-1.74,5.28-5.21,7.29l0.04-12.94
												C417.99,185.2,419.72,182.56,419.73,179.92z"/>
										</g>
										<g>
											<polygon class="st14" points="395.1,187.83 395.06,200.76 274.58,131.2 274.62,118.27 											"/>
										</g>
										<g>
											<polygon class="st14" points="274.62,118.27 274.58,131.2 86.23,240.66 86.27,227.72 											"/>
										</g>
										<g>
											<path class="st16" d="M57.73,250.83l0.04-12.94c-0.01,2.67,1.76,5.35,5.3,7.39l-0.04,12.94
												C59.49,256.18,57.72,253.5,57.73,250.83z"/>
										</g>
										<g>
											<polygon class="st17" points="206.75,297.28 206.71,310.22 86.23,240.66 86.27,227.72 											"/>
										</g>
										<g>
											<path class="st14" d="M125.84,278.11c-2.19,1.27-3.29,2.94-3.29,4.61l0.04-12.94c0.01-1.67,1.1-3.34,3.29-4.61
												C125.86,269.48,125.85,273.79,125.84,278.11c0.01-4.32,0.03-8.63,0.04-12.94c4.41-2.56,11.6-2.56,16.04,0
												c-0.01,4.31-0.02,8.63-0.03,12.94c0.01-4.31,0.02-8.62,0.04-12.94c2.23,1.29,3.35,2.99,3.34,4.68l-0.04,12.94
												c0.01-1.69-1.11-3.39-3.34-4.68C137.44,275.55,130.25,275.55,125.84,278.11z"/>
										</g>
										<g>
											<path class="st15" d="M145.26,269.85l-0.04,12.94c0,1.67-1.1,3.34-3.29,4.61c-4.41,2.56-11.6,2.56-16.04,0
												c-2.23-1.29-3.35-2.99-3.34-4.68l0.04-12.94c0,1.69,1.11,3.39,3.34,4.68c4.44,2.56,11.63,2.56,16.04,0
												C144.16,273.19,145.26,271.52,145.26,269.85z"/>
										</g>
										<g>
											<polygon class="st17" points="395.1,187.83 395.06,200.77 206.71,310.22 206.75,297.28 											"/>
										</g>
										<g>
											<path class="st18" d="M414.44,172.52c7.02,4.05,7.06,10.63,0.08,14.69L201.88,310.79c-6.98,4.05-18.33,4.05-25.36,0
												L63.06,245.28c-7.03-4.06-7.06-10.63-0.08-14.69l212.64-123.58c6.98-4.06,18.32-4.06,25.36,0L414.44,172.52z
												 M206.75,297.28L395.1,187.83l-120.48-69.56L86.27,227.72L206.75,297.28 M125.93,274.46c4.44,2.56,11.63,2.56,16.04,0
												c4.41-2.56,4.39-6.73-0.05-9.29c-4.44-2.56-11.63-2.56-16.04,0C121.47,267.73,121.49,271.9,125.93,274.46 M348.41,146.52
												c-2.07-1.19-5.4-1.19-7.46,0c-2.05,1.19-2.04,3.12,0.02,4.32c2.07,1.19,5.4,1.19,7.46,0
												C350.49,149.65,350.48,147.71,348.41,146.52"/>
										</g>
										<g>
											<path class="st16" d="M141.92,265.17c4.44,2.56,4.46,6.73,0.05,9.29s-11.6,2.56-16.04,0c-4.44-2.56-4.46-6.73-0.05-9.29
												C130.29,262.61,137.48,262.61,141.92,265.17z"/>
										</g>
										<g>
											<linearGradient id="SVGID_1_" gradientUnits="userSpaceOnUse" x1="56.6095" y1="242.4186" x2="407.2753" y2="176.4188">
												<stop  offset="0" style="stop-color:#FFFFFF"/>
												<stop  offset="0" style="stop-color:#D3E7F1"/>
												<stop  offset="0.5474" style="stop-color:#9DCBD2"/>
												<stop  offset="1" style="stop-color:#8EC3C9"/>
											</linearGradient>
											<polygon class="st19" points="395.1,187.83 206.75,297.28 86.27,227.72 274.62,118.27 											"/>
										</g>
										<g>
											<polygon class="st16" points="414.52,187.21 414.48,200.15 201.84,323.73 201.88,310.79 											"/>
										</g>
										<g>
											<polygon class="st16" points="176.52,310.79 176.48,323.73 63.03,258.22 63.06,245.28 											"/>
										</g>
										<g>
											<path class="st16" d="M201.88,310.79l-0.04,12.94c-6.98,4.05-18.33,4.05-25.36,0l0.04-12.94
												C183.54,314.84,194.9,314.84,201.88,310.79z"/>
										</g>
									</g>
								</g>
								<g>
									<path class="st7" d="M153.42,209.25c-0.06,1.21,0.64,2.35,2.16,3.23c1.44,0.83,3.42,1.23,5.49,1.19
										c2-0.03,4.15-0.52,5.76-1.46c1.61-0.94,2.47-2.18,2.53-3.35c0.07-1.2-0.66-2.33-2.09-3.16c-1.53-0.88-3.48-1.3-5.56-1.26
										c-2.04,0.03-4.17,0.54-5.78,1.48C154.31,206.85,153.44,208.08,153.42,209.25z"/>
									<path class="st7" d="M171.08,254.46c1.44,0.83,3.42,1.23,5.49,1.19c2.01-0.03,4.15-0.53,5.76-1.46
										c1.62-0.94,2.47-2.18,2.53-3.36c0.07-1.2-0.66-2.33-2.09-3.16c-1.53-0.88-3.48-1.3-5.56-1.26
										c-2.05,0.03-4.17,0.54-5.79,1.48c-1.61,0.94-2.48,2.17-2.51,3.34C168.85,252.43,169.54,253.58,171.08,254.46z"/>
									<path class="st7" d="M200.8,258.55l-2.94-1.7l-4.89,2.84l2.94,1.7c1.39,0.8,3.56,0.79,4.91,0.03
										C202.17,260.6,202.19,259.35,200.8,258.55z"/>
									<path class="st13" d="M153.2,204.33c-2.35,1.37-3.58,3.11-3.64,4.86c-0.09,1.74,1.03,3.54,3.32,4.86
										c2.2,1.27,5.31,1.91,8.26,1.82c3.02-0.04,6.07-0.73,8.43-2.1c2.35-1.37,3.51-3.12,3.6-4.89c0.16-1.73-0.97-3.51-3.18-4.78
										c-2.29-1.32-5.38-1.97-8.4-1.91C158.53,202.26,155.55,202.96,153.2,204.33z M167.27,205.69c1.44,0.83,2.16,1.96,2.09,3.16
										c-0.06,1.17-0.92,2.42-2.53,3.35c-1.62,0.94-3.76,1.44-5.76,1.46c-2.07,0.04-4.06-0.36-5.49-1.19
										c-1.53-0.88-2.23-2.03-2.16-3.23c0.02-1.17,0.9-2.4,2.51-3.34c1.61-0.94,3.73-1.45,5.78-1.48
										C163.79,204.39,165.74,204.81,167.27,205.69z"/>
									<path class="st13" d="M175.97,226.84c-0.04,0.31,0.12,0.62,0.51,0.84c0.72,0.41,1.91,0.41,2.62,0l13.81-8.03
										c0.69-0.4,0.68-1.09-0.03-1.5c-0.72-0.42-1.88-0.4-2.57,0l-9.79,5.69l2.89-10.64c0.1-0.34-0.11-0.67-0.52-0.91
										c-0.27-0.15-0.62-0.26-1.01-0.31c-0.62-0.06-1.25,0.08-1.62,0.33l-0.03,0.01l-13.81,8.02c-0.71,0.41-0.73,1.09,0.01,1.52
										c0.7,0.4,1.89,0.4,2.6-0.01l9.86-5.73L176,226.7L175.97,226.84z"/>
									<path class="st13" d="M201.49,222.85c-0.74-0.43-1.91-0.41-2.62,0L184.84,231c-0.71,0.41-0.73,1.09,0.01,1.52l0.03,0.01
										l0.04,0.03l7.75,4.48c0.7,0.4,1.91,0.41,2.62,0c0.74-0.43,0.71-1.13,0.02-1.53l-6.48-3.74l12.69-7.38
										C202.23,223.97,202.23,223.28,201.49,222.85z"/>
									<path class="st13" d="M198.6,240.46c0.71,0.41,1.91,0.44,2.65,0.01l14.02-8.15c0.74-0.43,0.68-1.12-0.03-1.53
										c-0.74-0.43-1.89-0.43-2.62,0l-14.02,8.15C197.86,239.37,197.86,240.03,198.6,240.46z"/>
									<path class="st13" d="M215.3,249.55c-0.05,0.3,0.12,0.62,0.5,0.84c0.72,0.42,1.91,0.41,2.62,0l13.81-8.02
										c0.69-0.4,0.69-1.09-0.03-1.5c-0.72-0.41-1.88-0.4-2.57,0l-9.79,5.69l2.9-10.63c0.1-0.34-0.11-0.67-0.52-0.91
										c-0.27-0.15-0.62-0.27-1.02-0.31c-0.62-0.06-1.24,0.08-1.61,0.33l-0.03,0.01l-13.81,8.02c-0.71,0.41-0.73,1.09,0.01,1.52
										c0.69,0.4,1.89,0.4,2.6-0.01l9.86-5.73l-2.9,10.55L215.3,249.55z"/>
									<path class="st13" d="M247.08,249.17l-7.75-4.47l-0.04-0.03l-0.03-0.01c-0.74-0.43-1.89-0.43-2.62,0l-14.02,8.15
										c-0.71,0.41-0.73,1.09,0.01,1.52h0.05l0.02,0.04l7.75,4.48c0.7,0.4,1.91,0.41,2.62,0c0.74-0.43,0.71-1.13,0.02-1.53
										l-6.48-3.74l4.37-2.54l5.57,3.22c0.72,0.41,1.91,0.41,2.65-0.01c0.69-0.4,0.71-1.11-0.01-1.52l-5.57-3.22l4.35-2.53
										l6.48,3.74c0.7,0.4,1.91,0.42,2.65-0.01h0C247.82,250.26,247.77,249.57,247.08,249.17z"/>
									<path class="st13" d="M134.5,236.46c1.7,0.98,3.75,1.58,5.78,1.77c2.05,0.19,4.22-0.07,5.74-0.95
										c0.74-0.43,1.24-0.96,1.44-1.5c0.33-0.83,0.09-1.68-0.42-2.53c-0.51-0.81-1.32-1.64-2.31-2.48l-0.05-0.03
										c-1.05-0.88-1.75-1.73-1.94-2.33c-0.1-0.31-0.1-0.56-0.02-0.73c0.07-0.18,0.21-0.32,0.49-0.49
										c0.49-0.29,1.29-0.44,2.41-0.34c1.12,0.1,2.41,0.46,3.48,1.08c1.46,0.84,1.93,1.94,2.33,3.11c0.07,0.2,0.24,0.37,0.47,0.51
										c0.4,0.23,0.99,0.34,1.58,0.27c0.94-0.1,1.52-0.64,1.36-1.18c-0.44-1.16-1.02-2.79-3.32-4.11
										c-1.55-0.9-3.46-1.48-5.39-1.66c-1.91-0.16-3.96,0.08-5.39,0.91c-0.72,0.42-1.19,0.91-1.4,1.46
										c-0.31,0.79-0.11,1.59,0.37,2.36c0.48,0.77,1.25,1.54,2.16,2.32l0.05,0.03c1.15,0.97,1.92,1.88,2.16,2.54
										c0.12,0.35,0.1,0.61,0.01,0.83c-0.1,0.22-0.25,0.39-0.55,0.56c-0.6,0.35-1.5,0.52-2.74,0.4c-1.24-0.11-2.68-0.52-3.87-1.21
										c-0.02-0.01-0.04-0.02-0.06-0.04c-1.68-0.97-2.48-2.58-2.67-3.67c-0.04-0.24-0.23-0.45-0.51-0.62
										c-0.36-0.21-0.87-0.32-1.4-0.29c-0.93,0.07-1.65,0.56-1.54,1.12C131.04,232.95,131.94,234.95,134.5,236.46z"/>
									<path class="st13" d="M157.45,248.22l14.02-8.15c0.74-0.43,0.71-1.11-0.03-1.53c-0.74-0.43-1.89-0.43-2.62,0l-5.7,3.31
										l-6.19-3.58l5.7-3.31c0.74-0.43,0.71-1.11-0.03-1.53c-0.74-0.43-1.89-0.43-2.62,0l-14.02,8.15
										c-0.74,0.43-0.73,1.09,0.01,1.52s1.91,0.45,2.65,0.01l5.7-3.31l6.19,3.58l-5.7,3.31c-0.74,0.43-0.73,1.09,0.01,1.52l0,0
										C155.55,248.63,156.71,248.65,157.45,248.22z"/>
									<path class="st13" d="M176.63,257.86c3.03-0.04,6.08-0.74,8.43-2.1c2.35-1.37,3.51-3.12,3.6-4.89
										c0.16-1.73-0.97-3.51-3.18-4.78c-2.29-1.32-5.37-1.98-8.4-1.91c-3.05,0.06-6.03,0.76-8.38,2.13
										c-2.35,1.36-3.58,3.11-3.64,4.86c-0.08,1.74,1.03,3.53,3.32,4.86l0,0C170.57,257.31,173.67,257.94,176.63,257.86z
										 M171.41,247.89c1.62-0.94,3.74-1.45,5.79-1.48c2.08-0.04,4.03,0.37,5.56,1.26c1.44,0.83,2.16,1.96,2.09,3.16
										c-0.06,1.18-0.92,2.42-2.53,3.36c-1.61,0.94-3.75,1.43-5.76,1.46c-2.07,0.04-4.05-0.36-5.49-1.19
										c-1.53-0.88-2.23-2.03-2.17-3.23C168.93,250.06,169.8,248.82,171.41,247.89z"/>
									<path class="st13" d="M203.44,257.01l-4.26-2.46l-0.02-0.01c-0.72-0.42-1.89-0.43-2.62,0l-14.02,8.15
										c-0.72,0.42-0.71,1.1,0.01,1.52l0,0c0.74,0.43,1.92,0.43,2.64,0.01l5.16-3l2.94,1.7c2.85,1.64,7.42,1.65,10.21,0.03
										C206.31,261.31,206.29,258.66,203.44,257.01z M200.82,261.42c-1.36,0.76-3.52,0.77-4.91-0.03l-2.94-1.7l4.89-2.84l2.94,1.7
										C202.19,259.35,202.17,260.6,200.82,261.42z"/>
								</g>
							</g>
							<g>
								<g>
									<g>
										<g>
											<path class="st7" d="M263.73,217.72c0.02,0,0.04,0,0.05,0C263.77,217.72,263.75,217.72,263.73,217.72z"/>
											<path class="st7" d="M264.18,217.79c0.03,0.01,0.06,0.01,0.1,0.02C264.24,217.8,264.21,217.79,264.18,217.79z"/>
											<path class="st7" d="M256.68,213.24c0.06,0.02,0.11,0.04,0.17,0.07C256.79,213.28,256.73,213.27,256.68,213.24z"/>
											<path class="st7" d="M263.31,217.72c0.03,0,0.06,0,0.08,0C263.37,217.72,263.34,217.72,263.31,217.72z"/>
											<path class="st7" d="M264.66,217.92c0.01,0,0.02,0.01,0.04,0.01C264.69,217.92,264.67,217.92,264.66,217.92z"/>
											<path class="st7" d="M265.13,218.1c0.03,0.02,0.07,0.03,0.11,0.05C265.2,218.13,265.16,218.11,265.13,218.1z"/>
											<path class="st7" d="M270.53,226.78c0,0.18-0.01,0.35-0.02,0.51C270.52,227.13,270.53,226.96,270.53,226.78z"/>
											<path class="st7" d="M254.08,213.14c0.05-0.02,0.11-0.05,0.16-0.08C254.18,213.08,254.13,213.11,254.08,213.14z"/>
											<path class="st7" d="M254.44,213c0.06-0.02,0.11-0.04,0.17-0.05C254.56,212.97,254.5,212.99,254.44,213z"/>
											<path class="st7" d="M256.17,213.06c0.06,0.02,0.13,0.03,0.19,0.05C256.3,213.09,256.24,213.08,256.17,213.06z"/>
											<path class="st7" d="M255.26,212.91c0.06,0,0.12,0,0.19,0C255.38,212.91,255.32,212.91,255.26,212.91z"/>
											<path class="st7" d="M254.84,212.93c0.06-0.01,0.12-0.02,0.18-0.02C254.96,212.91,254.9,212.92,254.84,212.93z"/>
											<path class="st7" d="M255.7,212.95c0.06,0.01,0.13,0.02,0.19,0.03C255.83,212.97,255.77,212.96,255.7,212.95z"/>
											<path class="st7" d="M268.12,231.35c-0.11,0.08-0.23,0.16-0.34,0.23C267.89,231.5,268.01,231.43,268.12,231.35z"/>
											<path class="st7" d="M268.45,231.09c-0.08,0.06-0.16,0.12-0.24,0.18C268.3,231.21,268.37,231.15,268.45,231.09z"/>
											<path class="st7" d="M268.78,230.8c-0.07,0.07-0.14,0.13-0.22,0.19C268.64,230.93,268.71,230.87,268.78,230.8z"/>
											<path class="st7" d="M270.49,227.45c-0.01,0.11-0.03,0.23-0.05,0.34C270.46,227.68,270.47,227.56,270.49,227.45z"/>
											<path class="st7" d="M269.44,230.09c-0.09,0.11-0.17,0.22-0.27,0.32C269.26,230.31,269.35,230.2,269.44,230.09z"/>
											<path class="st7" d="M269.15,230.43c-0.09,0.1-0.18,0.19-0.27,0.28C268.97,230.62,269.06,230.53,269.15,230.43z"/>
											<path class="st7" d="M270.14,228.85c-0.05,0.13-0.11,0.26-0.17,0.38C270.03,229.11,270.09,228.98,270.14,228.85z"/>
											<path class="st7" d="M269.91,229.35c-0.05,0.09-0.1,0.18-0.15,0.26C269.81,229.53,269.86,229.44,269.91,229.35z"/>
											<path class="st7" d="M270.3,228.41c-0.04,0.15-0.09,0.29-0.14,0.43C270.21,228.7,270.25,228.55,270.3,228.41z"/>
											<path class="st7" d="M269.68,229.74c-0.05,0.08-0.11,0.17-0.17,0.25C269.57,229.91,269.63,229.82,269.68,229.74z"/>
											<path class="st7" d="M270.41,227.95c-0.02,0.11-0.05,0.22-0.08,0.32C270.36,228.17,270.39,228.06,270.41,227.95z"/>
											<path class="st5" d="M268.12,231.35c0.03-0.02,0.07-0.05,0.1-0.07c0.08-0.06,0.16-0.12,0.24-0.18
												c0.04-0.03,0.07-0.06,0.11-0.09c0.07-0.06,0.15-0.13,0.22-0.19c0.03-0.03,0.07-0.06,0.1-0.09
												c0.09-0.09,0.18-0.18,0.27-0.28c0.01-0.01,0.01-0.01,0.02-0.02c0.09-0.1,0.18-0.21,0.27-0.32
												c0.03-0.03,0.05-0.07,0.07-0.1c0.06-0.08,0.12-0.16,0.17-0.25c0.03-0.04,0.05-0.08,0.08-0.13
												c0.05-0.08,0.1-0.17,0.15-0.26c0.02-0.04,0.04-0.08,0.06-0.12c0.06-0.12,0.12-0.25,0.17-0.38c0-0.01,0-0.01,0.01-0.02
												c0.05-0.14,0.1-0.28,0.14-0.43c0.01-0.04,0.02-0.09,0.04-0.14c0.03-0.1,0.05-0.21,0.08-0.32
												c0.01-0.05,0.02-0.11,0.03-0.16c0.02-0.11,0.03-0.22,0.05-0.34c0.01-0.05,0.01-0.1,0.02-0.15
												c0.01-0.17,0.02-0.34,0.02-0.51c0.01-3.09-2.16-6.85-4.85-8.4c-0.15-0.09-0.3-0.16-0.45-0.23
												c-0.04-0.02-0.07-0.03-0.11-0.05c-0.14-0.06-0.29-0.12-0.43-0.17c-0.01,0-0.02-0.01-0.04-0.01
												c-0.13-0.04-0.26-0.08-0.39-0.11c-0.03-0.01-0.06-0.02-0.1-0.02c-0.13-0.03-0.27-0.05-0.39-0.06c-0.02,0-0.04,0-0.05,0
												c-0.11-0.01-0.23-0.01-0.34-0.01c-0.03,0-0.06,0-0.08,0c-0.74,0.05-1.37,0.38-1.81,0.95c-0.85-2.11-2.39-4.08-4.16-5.1
												c-0.17-0.1-0.33-0.18-0.5-0.26c-0.06-0.03-0.11-0.04-0.17-0.07c-0.11-0.04-0.21-0.09-0.32-0.13
												c-0.06-0.02-0.13-0.03-0.19-0.05c-0.09-0.03-0.19-0.06-0.28-0.08c-0.07-0.01-0.13-0.02-0.19-0.03
												c-0.09-0.01-0.17-0.03-0.26-0.04c-0.06-0.01-0.13,0-0.19,0c-0.08,0-0.16-0.01-0.24,0c-0.06,0-0.12,0.01-0.18,0.02
												c-0.07,0.01-0.15,0.01-0.22,0.03c-0.06,0.01-0.12,0.03-0.17,0.05c-0.07,0.02-0.14,0.03-0.2,0.06
												c-0.06,0.02-0.11,0.05-0.16,0.08c-0.06,0.03-0.13,0.05-0.19,0.09c-0.88,0.51-1.42,1.59-1.43,3.13
												c-0.02,6.29,8.55,16.52,9,17.06c0.28-0.01,3.72-0.19,6.28-1.81c0.01-0.01,0.02-0.01,0.04-0.02
												C267.89,231.5,268.01,231.43,268.12,231.35z"/>
											<path class="st1" d="M267.81,217.14c-1.35-0.78-2.58-0.85-3.46-0.34l-0.79,0.46c-0.86-2.04-2.37-3.94-4.08-4.93
												c-1.35-0.78-2.58-0.85-3.46-0.34l-2.13,1.24c0,0,0.01,0,0.01,0c0.06-0.03,0.12-0.06,0.19-0.09
												c0.05-0.02,0.11-0.05,0.16-0.08c0.07-0.02,0.13-0.04,0.2-0.06c0.06-0.02,0.11-0.04,0.17-0.05
												c0.07-0.01,0.15-0.02,0.22-0.03c0.06-0.01,0.12-0.02,0.18-0.02c0.08,0,0.16,0,0.24,0c0.06,0,0.12,0,0.19,0
												c0.08,0.01,0.17,0.03,0.26,0.04c0.06,0.01,0.13,0.02,0.19,0.03c0.09,0.02,0.19,0.05,0.28,0.08
												c0.06,0.02,0.13,0.03,0.19,0.05c0.1,0.04,0.21,0.08,0.32,0.13c0.06,0.02,0.11,0.04,0.17,0.07
												c0.16,0.08,0.33,0.16,0.5,0.26c1.77,1.02,3.31,2.99,4.16,5.1c0.44-0.58,1.06-0.91,1.81-0.95c0.03,0,0.06,0,0.08,0
												c0.11,0,0.22,0,0.34,0.01c0.02,0,0.04,0,0.05,0c0.13,0.01,0.26,0.03,0.39,0.06c0.03,0.01,0.06,0.01,0.1,0.02
												c0.13,0.03,0.26,0.06,0.39,0.11c0.01,0,0.02,0.01,0.04,0.01c0.14,0.05,0.28,0.11,0.43,0.17
												c0.03,0.02,0.07,0.03,0.11,0.05c0.15,0.07,0.3,0.14,0.45,0.23c2.69,1.55,4.86,5.31,4.85,8.4c0,0.18-0.01,0.35-0.02,0.51
												c0,0.05-0.01,0.1-0.02,0.15c-0.01,0.11-0.03,0.23-0.05,0.34c-0.01,0.06-0.02,0.11-0.03,0.16
												c-0.02,0.11-0.05,0.22-0.08,0.32c-0.01,0.05-0.02,0.09-0.04,0.14c-0.04,0.15-0.09,0.29-0.14,0.43
												c0,0.01,0,0.01-0.01,0.02c-0.05,0.13-0.11,0.26-0.17,0.38c-0.02,0.04-0.04,0.08-0.06,0.12c-0.05,0.09-0.1,0.18-0.15,0.26
												c-0.03,0.04-0.05,0.08-0.08,0.13c-0.05,0.08-0.11,0.17-0.17,0.25c-0.02,0.03-0.05,0.07-0.07,0.1
												c-0.09,0.11-0.17,0.22-0.27,0.32c-0.01,0.01-0.01,0.01-0.02,0.02c-0.09,0.1-0.18,0.19-0.27,0.28
												c-0.03,0.03-0.07,0.06-0.1,0.09c-0.07,0.07-0.14,0.13-0.22,0.19c-0.04,0.03-0.07,0.06-0.11,0.09
												c-0.08,0.06-0.16,0.12-0.24,0.18c-0.03,0.02-0.07,0.05-0.1,0.07c-0.11,0.08-0.23,0.16-0.34,0.23
												c-0.01,0.01-0.02,0.01-0.04,0.02c-0.09,0.06-0.18,0.11-0.27,0.16l2.13-1.24c1.68-0.97,3.05-2.52,3.06-4.99
												C272.67,222.45,270.5,218.69,267.81,217.14z"/>
										</g>
										<g>
											<path class="st7" d="M196.13,181.75c0.02,0,0.04,0,0.05,0C196.17,181.75,196.15,181.75,196.13,181.75z"/>
											<path class="st7" d="M196.58,181.81c0.03,0.01,0.06,0.01,0.1,0.02C196.64,181.82,196.61,181.82,196.58,181.81z"/>
											<path class="st7" d="M189.08,177.26c0.06,0.02,0.11,0.04,0.17,0.07C189.19,177.31,189.13,177.29,189.08,177.26z"/>
											<path class="st7" d="M195.71,181.74c0.03,0,0.06,0,0.08,0C195.77,181.74,195.74,181.74,195.71,181.74z"/>
											<path class="st7" d="M197.06,181.94c0.01,0,0.02,0.01,0.04,0.01C197.09,181.95,197.07,181.94,197.06,181.94z"/>
											<path class="st7" d="M197.53,182.12c0.03,0.02,0.07,0.03,0.11,0.05C197.6,182.15,197.56,182.14,197.53,182.12z"/>
											<path class="st7" d="M202.93,190.8c0,0.18-0.01,0.35-0.02,0.51C202.92,191.15,202.93,190.98,202.93,190.8z"/>
											<path class="st7" d="M186.48,177.16c0.05-0.02,0.11-0.05,0.16-0.08C186.58,177.11,186.53,177.14,186.48,177.16z"/>
											<path class="st7" d="M186.84,177.03c0.06-0.02,0.11-0.04,0.17-0.05C186.96,176.99,186.9,177.01,186.84,177.03z"/>
											<path class="st7" d="M188.57,177.08c0.06,0.02,0.13,0.03,0.19,0.05C188.7,177.12,188.64,177.1,188.57,177.08z"/>
											<path class="st7" d="M187.66,176.93c0.06,0,0.12,0,0.19,0C187.78,176.93,187.72,176.93,187.66,176.93z"/>
											<path class="st7" d="M187.24,176.95c0.06-0.01,0.12-0.02,0.18-0.02C187.36,176.93,187.3,176.94,187.24,176.95z"/>
											<path class="st7" d="M188.1,176.98c0.06,0.01,0.13,0.02,0.19,0.03C188.23,176.99,188.17,176.99,188.1,176.98z"/>
											<path class="st7" d="M200.52,195.37c-0.11,0.08-0.23,0.16-0.34,0.23C200.29,195.53,200.4,195.45,200.52,195.37z"/>
											<path class="st7" d="M200.85,195.11c-0.08,0.06-0.16,0.12-0.24,0.18C200.7,195.24,200.77,195.17,200.85,195.11z"/>
											<path class="st7" d="M201.18,194.83c-0.07,0.07-0.14,0.13-0.22,0.19C201.04,194.96,201.11,194.89,201.18,194.83z"/>
											<path class="st7" d="M202.88,191.47c-0.01,0.11-0.03,0.23-0.05,0.34C202.86,191.7,202.87,191.59,202.88,191.47z"/>
											<path class="st7" d="M201.83,194.11c-0.09,0.11-0.17,0.22-0.27,0.32C201.66,194.33,201.75,194.22,201.83,194.11z"/>
											<path class="st7" d="M201.55,194.46c-0.09,0.1-0.18,0.19-0.27,0.28C201.37,194.65,201.46,194.55,201.55,194.46z"/>
											<path class="st7" d="M202.54,192.87c-0.05,0.13-0.11,0.26-0.17,0.38C202.43,193.13,202.49,193,202.54,192.87z"/>
											<path class="st7" d="M202.31,193.38c-0.05,0.09-0.1,0.18-0.15,0.26C202.21,193.55,202.26,193.47,202.31,193.38z"/>
											<path class="st7" d="M202.7,192.43c-0.04,0.15-0.09,0.29-0.14,0.43C202.6,192.72,202.65,192.58,202.7,192.43z"/>
											<path class="st7" d="M202.08,193.76c-0.05,0.08-0.11,0.17-0.17,0.25C201.97,193.93,202.03,193.85,202.08,193.76z"/>
											<path class="st7" d="M202.81,191.97c-0.02,0.11-0.05,0.22-0.08,0.32C202.76,192.19,202.79,192.08,202.81,191.97z"/>
											<path class="st5" d="M200.52,195.37c0.03-0.02,0.07-0.05,0.1-0.07c0.08-0.06,0.16-0.12,0.24-0.18
												c0.04-0.03,0.07-0.06,0.11-0.09c0.07-0.06,0.15-0.13,0.22-0.19c0.03-0.03,0.07-0.06,0.1-0.09
												c0.09-0.09,0.18-0.18,0.27-0.28c0.01-0.01,0.01-0.01,0.02-0.02c0.09-0.1,0.18-0.21,0.27-0.32
												c0.03-0.03,0.05-0.07,0.07-0.1c0.06-0.08,0.12-0.16,0.17-0.25c0.03-0.04,0.05-0.08,0.08-0.13
												c0.05-0.08,0.1-0.17,0.15-0.26c0.02-0.04,0.04-0.08,0.06-0.12c0.06-0.12,0.12-0.25,0.17-0.38c0-0.01,0-0.01,0.01-0.02
												c0.05-0.14,0.1-0.28,0.14-0.43c0.01-0.04,0.02-0.09,0.04-0.14c0.03-0.1,0.05-0.21,0.08-0.32
												c0.01-0.05,0.02-0.11,0.03-0.16c0.02-0.11,0.03-0.22,0.05-0.34c0.01-0.05,0.01-0.1,0.02-0.15
												c0.01-0.17,0.02-0.34,0.02-0.51c0.01-3.09-2.16-6.85-4.85-8.4c-0.15-0.09-0.3-0.16-0.45-0.23
												c-0.04-0.02-0.07-0.03-0.11-0.05c-0.14-0.06-0.29-0.12-0.43-0.17c-0.01,0-0.02-0.01-0.04-0.01
												c-0.13-0.04-0.26-0.08-0.39-0.11c-0.03-0.01-0.06-0.02-0.1-0.02c-0.13-0.03-0.27-0.05-0.39-0.06c-0.02,0-0.04,0-0.05,0
												c-0.11-0.01-0.23-0.01-0.34-0.01c-0.03,0-0.06,0-0.08,0c-0.74,0.05-1.37,0.38-1.81,0.95c-0.85-2.11-2.39-4.08-4.16-5.1
												c-0.17-0.1-0.33-0.18-0.5-0.26c-0.06-0.03-0.11-0.04-0.17-0.07c-0.11-0.04-0.21-0.09-0.32-0.13
												c-0.06-0.02-0.13-0.03-0.19-0.05c-0.09-0.03-0.19-0.06-0.28-0.08c-0.07-0.01-0.13-0.02-0.19-0.03
												c-0.09-0.01-0.17-0.03-0.26-0.04c-0.06-0.01-0.13,0-0.19,0c-0.08,0-0.16-0.01-0.24,0c-0.06,0-0.12,0.01-0.18,0.02
												c-0.07,0.01-0.15,0.01-0.22,0.03c-0.06,0.01-0.12,0.03-0.17,0.05c-0.07,0.02-0.14,0.03-0.2,0.06
												c-0.06,0.02-0.11,0.05-0.16,0.08c-0.06,0.03-0.13,0.05-0.19,0.09c-0.88,0.51-1.42,1.59-1.43,3.13
												c-0.02,6.29,8.55,16.52,9,17.06c0.28-0.01,3.72-0.19,6.28-1.81c0.01-0.01,0.02-0.01,0.04-0.02
												C200.29,195.53,200.4,195.45,200.52,195.37z"/>
											<path class="st1" d="M200.21,181.16c-1.35-0.78-2.58-0.85-3.46-0.34l-0.79,0.46c-0.86-2.04-2.37-3.94-4.08-4.93
												c-1.35-0.78-2.58-0.85-3.46-0.34l-2.13,1.24c0,0,0.01,0,0.01,0c0.06-0.03,0.12-0.06,0.19-0.09
												c0.05-0.02,0.11-0.05,0.16-0.08c0.07-0.02,0.13-0.04,0.2-0.06c0.06-0.02,0.11-0.04,0.17-0.05
												c0.07-0.01,0.15-0.02,0.22-0.03c0.06-0.01,0.12-0.02,0.18-0.02c0.08,0,0.16,0,0.24,0c0.06,0,0.12,0,0.19,0
												c0.08,0.01,0.17,0.03,0.26,0.04c0.06,0.01,0.13,0.02,0.19,0.03c0.09,0.02,0.19,0.05,0.28,0.08
												c0.06,0.02,0.13,0.03,0.19,0.05c0.1,0.04,0.21,0.08,0.32,0.13c0.06,0.02,0.11,0.04,0.17,0.07
												c0.16,0.08,0.33,0.16,0.5,0.26c1.77,1.02,3.31,2.99,4.16,5.1c0.44-0.58,1.06-0.91,1.81-0.95c0.03,0,0.06,0,0.08,0
												c0.11,0,0.22,0,0.34,0.01c0.02,0,0.04,0,0.05,0c0.13,0.01,0.26,0.03,0.39,0.06c0.03,0.01,0.06,0.01,0.1,0.02
												c0.13,0.03,0.26,0.06,0.39,0.11c0.01,0,0.02,0.01,0.04,0.01c0.14,0.05,0.28,0.11,0.43,0.17
												c0.03,0.02,0.07,0.03,0.11,0.05c0.15,0.07,0.3,0.14,0.45,0.23c2.69,1.55,4.86,5.31,4.85,8.4c0,0.18-0.01,0.35-0.02,0.51
												c0,0.05-0.01,0.1-0.02,0.15c-0.01,0.12-0.03,0.23-0.05,0.34c-0.01,0.06-0.02,0.11-0.03,0.16
												c-0.02,0.11-0.05,0.22-0.08,0.32c-0.01,0.05-0.02,0.09-0.04,0.14c-0.04,0.15-0.09,0.29-0.14,0.43
												c0,0.01,0,0.01-0.01,0.02c-0.05,0.13-0.11,0.26-0.17,0.38c-0.02,0.04-0.04,0.08-0.06,0.12c-0.05,0.09-0.1,0.18-0.15,0.26
												c-0.03,0.04-0.05,0.08-0.08,0.13c-0.05,0.08-0.11,0.17-0.17,0.25c-0.03,0.03-0.05,0.07-0.07,0.1
												c-0.09,0.11-0.17,0.22-0.27,0.32c-0.01,0.01-0.01,0.01-0.02,0.02c-0.09,0.1-0.18,0.19-0.27,0.28
												c-0.03,0.03-0.07,0.06-0.1,0.09c-0.07,0.07-0.14,0.13-0.22,0.19c-0.04,0.03-0.07,0.06-0.11,0.09
												c-0.08,0.06-0.16,0.12-0.24,0.18c-0.03,0.02-0.07,0.05-0.1,0.07c-0.11,0.08-0.23,0.16-0.34,0.23
												c-0.01,0.01-0.02,0.01-0.04,0.02c-0.09,0.06-0.18,0.11-0.27,0.16l2.13-1.24c1.68-0.97,3.05-2.52,3.06-4.99
												C205.07,186.47,202.9,182.71,200.21,181.16z"/>
										</g>
										<g>
											<path class="st20" d="M235.93,169.08L235.93,169.08c-3.6-2.08-6.53-0.4-6.54,3.73l-0.01,2.39l-0.01,3.65l0,2.58
												c0,0.36,0.26,0.8,0.57,0.98l0.01,0c0.32,0.18,0.57,0.03,0.57-0.34c0-0.08,0-2.53,0-2.57l0.02-6.03
												c0.01-3.41,2.43-4.79,5.39-3.08c2.96,1.71,5.37,5.88,5.36,9.28l-0.02,8.53c0,0.37,0.26,0.81,0.58,1
												c0.32,0.18,0.57,0.03,0.58-0.33l0-0.28l0.02-8.25C242.44,176.21,239.53,171.16,235.93,169.08z"/>
											<g>
												<polygon class="st21" points="225.84,175.38 216.22,180.25 213.96,209.72 223.58,204.85 												"/>
												<polygon class="st22" points="225.84,175.38 223.58,204.85 248.15,219.04 246.06,187.05 												"/>
												<polygon class="st23" points="216.22,180.25 213.96,209.72 238.53,223.91 236.44,191.92 												"/>
												<g>
													<polygon class="st21" points="236.44,191.92 246.06,187.05 248.15,219.04 244.01,219.44 238.53,223.91 													
														"/>
													<polygon class="st22" points="242.29,220.84 241.43,191.94 245.58,219.29 244.01,219.44 													"/>
												</g>
											</g>
											<path class="st20" d="M226.31,173.95L226.31,173.95c-3.6-2.08-6.53-0.4-6.54,3.73l-0.01,2.39l-0.01,3.65l0,2.58
												c0,0.36,0.26,0.8,0.57,0.98l0.01,0c0.32,0.18,0.57,0.03,0.57-0.34c0-0.08,0-2.53,0-2.57l0.02-6.03
												c0.01-3.41,2.43-4.79,5.39-3.08c2.96,1.71,5.37,5.88,5.36,9.28l-0.02,8.53c0,0.37,0.26,0.81,0.58,1s0.57,0.03,0.58-0.33
												l0-0.28l0.02-8.25C232.82,181.08,229.91,176.03,226.31,173.95z"/>
										</g>
									</g>
									<g>
										<g>
											<g>
												<g>
													<g>
														<g>
															<polygon class="st24" points="243.85,117.08 288.12,91.52 288.12,151.16 243.85,176.72 															"/>
															<polygon class="st25" points="288.06,91.53 288.06,151.17 347.09,185.25 347.09,125.61 															"/>
														</g>
														<g>
															<polygon class="st26" points="243.79,117.09 243.79,176.73 302.82,210.81 302.82,151.17 															"/>
															<polygon class="st27" points="302.82,151.17 347.09,125.61 347.09,185.25 302.82,210.81 															"/>
														</g>
													</g>
													<g>
														<polygon class="st13" points="243.79,117.09 302.82,151.17 347.09,125.61 288.06,91.53 														"/>
														<g>
															<polygon class="st28" points="245.62,117.09 288.06,92.59 345.26,125.61 302.82,150.12 															"/>
														</g>
													</g>
												</g>
											</g>
											<g>
												<g>
													<g>
														<polygon class="st29" points="278.42,188.2 278.42,162.64 279.03,162.31 279.03,187.85 														"/>
														<g>
															<polygon class="st13" points="246.7,144.32 246.7,169.89 278.42,188.2 278.42,162.64 															"/>
															<polygon class="st29" points="247.61,169.36 247.61,145.9 277.51,163.17 277.51,186.56 															"/>
															<polygon class="st30" points="248.53,168.84 248.53,146.43 277.51,163.18 277.51,185.51 															"/>
															<path class="st31" d="M254.17,166.86c7.94-1.27,16-0.15,23.34,2.84v-6.52l-28.98-16.74v21.62
																C250.37,167.48,252.31,167.15,254.17,166.86z"/>
															<polygon class="st32" points="279.03,162.31 247.29,144.07 246.7,144.32 278.42,162.64 															"/>
														</g>
													</g>
													<g>
														<path class="st13" d="M280.69,198.03v-25.54c0-3.79,4.11-6.17,7.39-4.27l0,0c4.55,2.62,7.35,7.48,7.35,12.72v25.6
															L280.69,198.03z"/>
														<path class="st33" d="M281.6,198.56v-26.07c0-2.49,2.09-4.02,4.02-4.02c0.7,0,1.37,0.18,2,0.55
															c4.25,2.45,6.89,7.03,6.89,11.93v25.07L281.6,198.56z"/>
													</g>
												</g>
												<g>
													<path class="st34" d="M248.8,127.2L248.8,127.2c-1.9,1.11-3.49,2.69-4.59,4.6l-5.7,9.87l10.28-5.95V127.2z"/>
													<g>
														<path class="st13" d="M248.8,127.2L248.8,127.2c-1.9,1.11-3.49,2.69-4.59,4.6l-5.7,9.87l51.65,29.81l5.54-9.6
															c1.2-2.08,2.93-3.81,5.01-5.01l0,0L248.8,127.2z"/>
														<g>
															<g>
																<g>
																	<path class="st5" d="M247.91,133.85c1.09-1.89,2.66-3.47,4.54-4.57l-3.64-2.08c-1.9,1.11-3.49,2.69-4.59,4.6
																		l-5.7,9.87l3.65,2.11L247.91,133.85z"/>
																	<path class="st5" d="M254.8,137.79c1.09-1.89,2.66-3.47,4.54-4.57l-3.64-2.08c-1.9,1.11-3.49,2.69-4.59,4.6
																		l-5.71,9.9l3.63,2.1L254.8,137.79z"/>
																	<path class="st5" d="M261.7,141.73c1.09-1.89,2.66-3.47,4.54-4.57l-3.64-2.08c-1.9,1.11-3.49,2.69-4.59,4.6
																		l-5.73,9.93l3.61,2.08L261.7,141.73z"/>
																	<path class="st5" d="M268.59,145.67c1.09-1.89,2.66-3.47,4.54-4.57l-3.64-2.08c-1.9,1.11-3.49,2.69-4.59,4.6
																		l-5.75,9.96l3.59,2.07L268.59,145.67z"/>
																	<path class="st5" d="M275.49,149.61c1.09-1.89,2.66-3.47,4.54-4.57l-3.64-2.08c-1.9,1.11-3.49,2.69-4.59,4.6
																		l-5.76,9.99l3.56,2.06L275.49,149.61z"/>
																	<path class="st5" d="M282.38,153.55c1.09-1.89,2.66-3.47,4.54-4.57l-3.64-2.08c-1.9,1.11-3.49,2.69-4.59,4.6
																		l-5.78,10.02l3.54,2.04L282.38,153.55z"/>
																	<path class="st5" d="M289.28,157.49c1.09-1.89,2.66-3.47,4.54-4.57l-3.64-2.08c-1.9,1.11-3.49,2.69-4.59,4.6
																		l-5.8,10.05l3.52,2.03L289.28,157.49z"/>
																	<path class="st5" d="M296.17,161.43c1.09-1.89,2.66-3.47,4.54-4.57l-3.64-2.08c-1.9,1.11-3.49,2.69-4.59,4.6
																		l-5.81,10.09l3.5,2.02L296.17,161.43z"/>
																</g>
															</g>
															<path class="st1" d="M300.72,156.87v8.52l-10.55,6.09l5.54-9.6C296.91,159.8,298.64,158.07,300.72,156.87
																L300.72,156.87z"/>
														</g>
													</g>
												</g>
											</g>
										</g>
										<g>
											<g>
												<g class="st2">
													<g>
														<polygon class="st1" points="293.22,112.03 296.91,109.89 294.57,113.17 290.88,115.32 														"/>
													</g>
													<g>
														<polygon class="st1" points="295.56,108.75 299.25,106.61 296.91,109.89 293.22,112.03 														"/>
													</g>
													<g>
														<path class="st1" d="M270.25,60.12l3.69-2.14c1.35-0.78,3.21-0.67,5.27,0.52l-3.69,2.14
															C273.46,59.45,271.59,59.34,270.25,60.12z"/>
													</g>
													<g>
														<path class="st1" d="M315.36,113.39l-3.69,2.14c1.33-0.77,2.15-2.42,2.16-4.75l3.69-2.14
															C317.51,110.97,316.69,112.61,315.36,113.39z"/>
													</g>
													<g>
														<polygon class="st1" points="313.89,91.32 317.58,89.18 317.52,108.64 313.84,110.78 														"/>
													</g>
													<g>
														<polygon class="st1" points="275.52,60.64 279.2,58.5 310.2,76.39 306.51,78.54 														"/>
													</g>
													<g>
														<path class="st1" d="M306.51,78.54l3.69-2.14c4.09,2.36,7.39,8.08,7.38,12.78l-3.69,2.14
															C313.9,86.62,310.6,80.89,306.51,78.54z"/>
													</g>
													<g>
														<path class="st5" d="M306.51,78.54c4.09,2.36,7.39,8.08,7.38,12.78l-0.06,19.46c-0.01,4.7-3.34,6.59-7.43,4.24
															l-10.85-6.26l-2.34,3.28l-2.34,3.28l-2.31-5.97l-2.31-5.97l-10.85-6.26c-4.09-2.36-7.39-8.08-7.38-12.78l0.06-19.46
															c0.01-4.7,3.34-6.59,7.43-4.23L306.51,78.54z"/>
													</g>
												</g>
											</g>
											<g>
												<path class="st7" d="M281.19,85.44c0-1.14-0.79-2.5-1.78-3.09l-2.17-1.25l-0.01,4.13l2.17,1.25
													C280.38,87.04,281.18,86.6,281.19,85.44z"/>
												<path class="st7" d="M280.11,78.92c0-0.88-0.6-1.93-1.37-2.37l-1.49-0.86l-0.01,3.19l1.49,0.86
													C279.5,80.19,280.11,79.8,280.11,78.92z"/>
												<path class="st13" d="M283.11,86.56c0-1.52-0.7-3.26-1.74-4.62c0.42-0.4,0.66-1.04,0.66-1.89
													c0.01-2.1-1.46-4.64-3.29-5.7l-2.4-1.38l-0.01-0.01l-0.06-0.03c-0.52-0.3-0.96-0.07-0.96,0.55l-0.03,11.77
													c0,0.6,0.43,1.35,0.95,1.65l0,0l0.06,0.01l0.01,0.03l3.07,1.77C281.44,89.89,283.11,88.93,283.11,86.56z M277.25,75.69
													l1.49,0.86c0.77,0.44,1.37,1.49,1.37,2.37c0,0.87-0.61,1.26-1.38,0.82l-1.49-0.86L277.25,75.69z M277.23,81.1l2.17,1.25
													c0.99,0.59,1.79,1.95,1.78,3.09c0,1.16-0.8,1.6-1.8,1.04l-2.17-1.25L277.23,81.1z"/>
												<path class="st13" d="M295.68,92.33l0.02-7.11c0-0.62-0.41-1.34-0.95-1.65c-0.54-0.31-0.98-0.08-0.98,0.54l-0.02,7.11
													c-0.01,1.96-1.38,2.76-3.1,1.77c-1.7-0.98-3.09-3.38-3.08-5.34l0.02-7.11c0-0.62-0.45-1.36-0.97-1.66
													c-0.54-0.31-0.96-0.07-0.96,0.55l-0.02,7.11c-0.01,3.17,2.21,7.05,5,8.67l0,0C293.42,96.8,295.67,95.5,295.68,92.33z"/>
												<path class="st13" d="M308.03,91.6c-0.17-0.24-0.36-0.42-0.56-0.54c-0.29-0.17-0.58-0.18-0.78,0l-2.98,2.96l-2.95-6.39
													c-0.18-0.4-0.46-0.72-0.75-0.89c-0.2-0.11-0.4-0.16-0.57-0.11c-0.44,0.11-0.53,0.74-0.19,1.41l3.51,7.64l-0.02,5.39
													c0,0.62,0.45,1.37,0.95,1.65c0.54,0.31,0.96,0.07,0.96-0.55l0.02-5.39l3.58-3.55l0,0l0-1.25
													C308.18,91.86,308.12,91.73,308.03,91.6z"/>
											</g>
										</g>
									</g>
								</g>
								<g>
									<polygon class="st22" points="332.13,179.22 333.42,178.47 332.13,177.73 									"/>
									<polygon class="st23" points="332.15,173.19 332.15,171.7 327.88,171.12 323.6,170.53 327.87,174.87 332.13,179.22 
										332.13,177.73 333.42,178.47 405.54,220.86 405.55,216.33 									"/>
									<polygon class="st22" points="336.41,170.72 336.41,169.22 332.14,168.64 327.87,168.05 323.6,170.53 327.88,171.12 
										332.15,171.7 332.15,173.19 405.55,216.33 405.54,220.86 409.8,218.38 409.81,213.85 									"/>
								</g>
								<path class="st35" d="M206.93,271.16l110.21,63.24c13.67,7.84,30.57,7.41,43.82-1.11l0,0"/>
							</g>
						</g>
					</g>
				</g>
			</g>
		</g>
	</g>
</g>
<g id="DESIGNED_BY_FREEPIK">
</g>
</svg>
